<svg id="Componente_1_1" data-name="Componente 1 – 1" xmlns="http://www.w3.org/2000/svg" width="46.88" height="34" viewBox="0 0 46.88 34">
  <g id="home_work-24px" transform="translate(12.88)">
    <path id="Trazado_7" data-name="Trazado 7" d="M18.358,18.333h2.833v2.833H18.358Zm0-5.667h2.833V15.5H18.358Zm0-5.667h2.833V9.833H18.358ZM13.74,7l1.785,1.19V7Z" transform="translate(5.725 2.917)"/>
    <path id="Trazado_8" data-name="Trazado 8" d="M10,3V5.139l2.833,1.884V5.833h12.75V25.667H19.917V28.5h8.5V3Z" transform="translate(4.167 1.25)"/>
    <path id="Trazado_9" data-name="Trazado 9" d="M11.157,5.7l9.676,6.446V27.375H1v-14.9ZM13.75,24.542H18V13.435L11.157,9.086,3.833,13.747v10.8h4.25v-8.5H13.75Z" transform="translate(0.417 2.375)"/>
    <path id="Trazado_10" data-name="Trazado 10" d="M0,0H34V34H0Z" fill="none"/>
  </g>
  <g id="transfer_within_a_station-24px" transform="translate(0 14.43)">
    <path id="Trazado_11" data-name="Trazado 11" d="M0,0H14.88V16.154H0Z" fill="none"/>
    <path id="Trazado_12" data-name="Trazado 12" d="M10.618,10.8V9.641L9.137,11.3l1.481,1.661V11.8H13.9v-1Zm1.8,2.824H9.137v1h3.277v1.163L13.9,14.127l-1.481-1.661ZM6.461,4.158A1.269,1.269,0,0,0,7.65,2.829,1.269,1.269,0,0,0,6.461,1.5a1.269,1.269,0,0,0-1.19,1.329A1.269,1.269,0,0,0,6.461,4.158ZM4.23,6.418,2.595,15.788H3.844l1.041-5.317L6.163,11.8v3.987h1.19V10.771L6.134,9.408,6.49,7.415A4,4,0,0,0,9.732,9.143V7.814A3,3,0,0,1,7.145,6.185L6.58,5.122a1.14,1.14,0,0,0-1.011-.631,1.085,1.085,0,0,0-.446.1L2,6.019V9.143H3.19V6.916l1.041-.5" transform="translate(-0.508 -0.381)"/>
  </g>
</svg>
