<svg id="language-24px" xmlns="http://www.w3.org/2000/svg" width="31.41" height="31.41" viewBox="0 0 31.41 31.41">
  <path id="Trazado_3" data-name="Trazado 3" d="M0,0H31.41V31.41H0Z" fill="none"/>
  <path id="Trazado_4" data-name="Trazado 4" d="M15.074,2a13.087,13.087,0,1,0,13.1,13.087A13.081,13.081,0,0,0,15.074,2Zm9.07,7.852H20.283a20.481,20.481,0,0,0-1.806-4.659A10.509,10.509,0,0,1,24.144,9.852ZM15.087,4.67a18.436,18.436,0,0,1,2.5,5.183h-5A18.436,18.436,0,0,1,15.087,4.67ZM4.958,17.7a10.237,10.237,0,0,1,0-5.235H9.381A21.614,21.614,0,0,0,9.2,15.087,21.614,21.614,0,0,0,9.381,17.7Zm1.073,2.617H9.892A20.48,20.48,0,0,0,11.7,24.982a10.453,10.453,0,0,1-5.667-4.659ZM9.892,9.852H6.031A10.453,10.453,0,0,1,11.7,5.193,20.481,20.481,0,0,0,9.892,9.852Zm5.2,15.653a18.436,18.436,0,0,1-2.5-5.183h5A18.436,18.436,0,0,1,15.087,25.505Zm3.062-7.8H12.025a19.255,19.255,0,0,1-.209-2.617,19.088,19.088,0,0,1,.209-2.617H18.15a19.088,19.088,0,0,1,.209,2.617A19.255,19.255,0,0,1,18.15,17.7Zm.327,7.277a20.481,20.481,0,0,0,1.806-4.659h3.861A10.509,10.509,0,0,1,18.477,24.982ZM20.794,17.7a21.614,21.614,0,0,0,.183-2.617,21.614,21.614,0,0,0-.183-2.617h4.424a10.237,10.237,0,0,1,0,5.235Z" transform="translate(0.617 0.617)"/>
</svg>
