<svg xmlns="http://www.w3.org/2000/svg" width="27" height="27" viewBox="0 0 27 27">
  <g id="emoji_events-24px" transform="translate(0 -0.486)">
    <g id="Grupo_8" data-name="Grupo 8">
      <rect id="Rectángulo_8" data-name="Rectángulo 8" width="27" height="27" transform="translate(0 0.486)" fill="none"/>
    </g>
    <g id="Grupo_10" data-name="Grupo 10" transform="translate(4.125 4.125)">
      <g id="Grupo_9" data-name="Grupo 9">
        <path id="Trazado_24" data-name="Trazado 24" d="M19.7,5.137H17.608V3H7.174V5.137H5.087A2.119,2.119,0,0,0,3,7.275V8.343a5.291,5.291,0,0,0,4.581,5.279,5.258,5.258,0,0,0,3.767,3.163V20.1H7.174v2.137H17.608V20.1H13.435V16.786A5.258,5.258,0,0,0,17.2,13.622a5.291,5.291,0,0,0,4.581-5.279V7.275A2.119,2.119,0,0,0,19.7,5.137ZM5.087,8.343V7.275H7.174v4.082A3.213,3.213,0,0,1,5.087,8.343Zm7.3,6.412a3.178,3.178,0,0,1-3.13-3.206V5.137h6.261v6.412A3.178,3.178,0,0,1,12.391,14.755Zm7.3-6.412a3.213,3.213,0,0,1-2.087,3.014V7.275H19.7Z" transform="translate(-3 -3)"/>
      </g>
    </g>
  </g>
</svg>
