<svg id="remove_red_eye-24px" xmlns="http://www.w3.org/2000/svg" width="40.304" height="39.381" viewBox="0 0 40.304 39.381">
  <path id="Trazado_33" data-name="Trazado 33" d="M0,0H40.3V39.381H0Z" fill="none"/>
  <path id="Trazado_34" data-name="Trazado 34" d="M19.26,7.481a16.477,16.477,0,0,1,14.642,8.2,16.458,16.458,0,0,1-14.642,8.2,16.458,16.458,0,0,1-14.642-8.2,16.477,16.477,0,0,1,14.642-8.2m0-2.981C10.96,4.5,3.872,9.135,1,15.678c2.872,6.543,9.96,11.178,18.26,11.178s15.389-4.635,18.26-11.178C34.649,9.135,27.561,4.5,19.26,4.5Zm0,7.452a3.957,3.957,0,0,1,4.15,3.726A3.957,3.957,0,0,1,19.26,19.4a3.957,3.957,0,0,1-4.15-3.726,3.957,3.957,0,0,1,4.15-3.726m0-2.981c-4.117,0-7.47,3.011-7.47,6.707s3.353,6.707,7.47,6.707,7.47-3.011,7.47-6.707S23.377,8.971,19.26,8.971Z" transform="translate(0.892 4.013)"/>
</svg>
